# xmcd
#
# Track frame offsets:
#	150
#	12485
#	26472
#	37302
#	48801
#	65457
#	80494
#	95061
#	106769
#	122622
#	132835
#	148001
#	160533
#	173029
#	184207
#	194414
#	205709
#	218743
#	231429
#	244397
#	258522
#	273910
#	292048
#	306675
#
# Disc length: 4210 seconds
#
# Revision: 1
# Processed by: cddbd v1.5.2PL0 Copyright (c) Steve Scherf et al.
# Submitted via: audiograbber 1.83.01
#
DISCID=67107018
DTITLE=The Gteatest Gountry Music Recordings Of All Time - Record 97 and 98
DYEAR=1900
DGENRE=
TTITLE0=Ricky Skaggs (with Tony Rice - Bury Me Beneath The Willow
TTITLE1=Ricky Skaggs - Don't Get Above Your Rising
TTITLE2=Ricky Skaggs - Talk About Suffering
TTITLE3=Ricky Skaggs - That's It
TTITLE4=Ricky Skaggs - Waiting For The Sun To Shine
TTITLE5=Ricky Skaggs - Southern Moon
TTITLE6=Buck White and the Down Home Folks - Lonesome Wind Blows
TTITLE7=Buck White and the Down Home Folks - It Sure Rains Hard In Tennessee
TTITLE8=Buck White and the Down Home Folks - A House Of Gold
TTITLE9=Buck White - More Pretty Girls Than One
TTITLE10=Buck White - San Antonio Rose
TTITLE11=Delia Bell - Roses In the Snow
TTITLE12=Carl Jackson - She's Gone, Gone, Gone
TTITLE13=Marty Stuart and Johnny Cash - Get In Line Brother
TTITLE14=Johnson Mountain Boys - Say You'll Take Me Back
TTITLE15=Johnson Mountain Boys - Carolina Mountain Home
TTITLE16=International Submarine Band - Luxury Liner
TTITLE17=International Submarine Band - Blue Eyes
TTITLE18=Riders In The Sky - Blue Bonnet Lady
TTITLE19=Riders In The Sky - Compadres In The Old Sierra Madres
TTITLE20=Riders In The Sky - Cool Water
TTITLE21=Asleep At The Wheel - Blues For Dixie
TTITLE22=Asleep At The Wheel - The Kind Of Love I Can't Forget
TTITLE23=The Byrd - Blue Canadian Rockies
EXTD=
EXTT0=
EXTT1=
EXTT2=
EXTT3=
EXTT4=
EXTT5=
EXTT6=
EXTT7=
EXTT8=
EXTT9=
EXTT10=
EXTT11=
EXTT12=
EXTT13=
EXTT14=
EXTT15=
EXTT16=
EXTT17=
EXTT18=
EXTT19=
EXTT20=
EXTT21=
EXTT22=
EXTT23=
PLAYORDER=
